<mxfile host="app.diagrams.net" modified="2023-01-07T10:07:31.158Z" agent="5.0 (Windows NT 6.1; Win64; x64) AppleWebKit/537.36 (KHTML, like Gecko) Chrome/100.0.4896.127 Safari/537.36" version="20.7.4" etag="4va3L355jMfRRmGLIw4g" type="github">
  <diagram id="ub3xRfjzEDoXPeOOTDxB" name="第 1 页">
    <mxGraphModel dx="2049" dy="1146" grid="1" gridSize="10" guides="1" tooltips="1" connect="1" arrows="1" fold="1" page="1" pageScale="1" pageWidth="400000" pageHeight="300000" math="0" shadow="0">
      <root>
        <mxCell id="0" />
        <mxCell id="1" parent="0" />
        <mxCell id="7bvRlJAXY8Oh5pNhT0Hx-41" value="" style="rounded=1;whiteSpace=wrap;html=1;dashed=1;" vertex="1" parent="1">
          <mxGeometry x="1695" y="90" width="190" height="330" as="geometry" />
        </mxCell>
        <mxCell id="7bvRlJAXY8Oh5pNhT0Hx-39" value="" style="rounded=1;whiteSpace=wrap;html=1;dashed=1;" vertex="1" parent="1">
          <mxGeometry x="1060" y="100" width="190" height="330" as="geometry" />
        </mxCell>
        <mxCell id="7bvRlJAXY8Oh5pNhT0Hx-1" value="Asamiya" style="rounded=1;whiteSpace=wrap;html=1;arcSize=50;" vertex="1" parent="1">
          <mxGeometry x="470" y="500" width="1980" height="20" as="geometry" />
        </mxCell>
        <mxCell id="7bvRlJAXY8Oh5pNhT0Hx-46" style="edgeStyle=orthogonalEdgeStyle;rounded=0;orthogonalLoop=1;jettySize=auto;html=1;exitX=1;exitY=0.5;exitDx=0;exitDy=0;entryX=0;entryY=0.5;entryDx=0;entryDy=0;endArrow=baseDash;endFill=0;" edge="1" parent="1" source="7bvRlJAXY8Oh5pNhT0Hx-2" target="7bvRlJAXY8Oh5pNhT0Hx-3">
          <mxGeometry relative="1" as="geometry" />
        </mxCell>
        <mxCell id="7bvRlJAXY8Oh5pNhT0Hx-2" value="8:00 - 15:00 &lt;br&gt;everyday&amp;nbsp;&lt;br&gt;技术构思" style="rounded=1;whiteSpace=wrap;html=1;" vertex="1" parent="1">
          <mxGeometry x="680" y="360" width="140" height="60" as="geometry" />
        </mxCell>
        <mxCell id="7bvRlJAXY8Oh5pNhT0Hx-13" style="edgeStyle=orthogonalEdgeStyle;rounded=0;orthogonalLoop=1;jettySize=auto;html=1;exitX=1;exitY=0.5;exitDx=0;exitDy=0;entryX=0;entryY=0.5;entryDx=0;entryDy=0;" edge="1" parent="1" source="7bvRlJAXY8Oh5pNhT0Hx-3" target="7bvRlJAXY8Oh5pNhT0Hx-12">
          <mxGeometry relative="1" as="geometry" />
        </mxCell>
        <mxCell id="7bvRlJAXY8Oh5pNhT0Hx-17" style="edgeStyle=orthogonalEdgeStyle;rounded=0;orthogonalLoop=1;jettySize=auto;html=1;exitX=1;exitY=0.5;exitDx=0;exitDy=0;entryX=0;entryY=0.5;entryDx=0;entryDy=0;dashed=1;" edge="1" parent="1" source="7bvRlJAXY8Oh5pNhT0Hx-3" target="7bvRlJAXY8Oh5pNhT0Hx-10">
          <mxGeometry relative="1" as="geometry" />
        </mxCell>
        <mxCell id="7bvRlJAXY8Oh5pNhT0Hx-3" value="15:00 - 18:00 &lt;br&gt;技术突破、实现" style="rounded=1;whiteSpace=wrap;html=1;" vertex="1" parent="1">
          <mxGeometry x="900" y="250" width="100" height="170" as="geometry" />
        </mxCell>
        <mxCell id="7bvRlJAXY8Oh5pNhT0Hx-7" style="edgeStyle=orthogonalEdgeStyle;rounded=0;orthogonalLoop=1;jettySize=auto;html=1;exitX=1;exitY=0.5;exitDx=0;exitDy=0;entryX=0;entryY=0.5;entryDx=0;entryDy=0;" edge="1" parent="1" source="7bvRlJAXY8Oh5pNhT0Hx-5" target="7bvRlJAXY8Oh5pNhT0Hx-3">
          <mxGeometry relative="1" as="geometry" />
        </mxCell>
        <mxCell id="7bvRlJAXY8Oh5pNhT0Hx-5" value="8:00 - 15:00 &lt;br&gt;投资模型" style="rounded=1;whiteSpace=wrap;html=1;" vertex="1" parent="1">
          <mxGeometry x="680" y="250" width="140" height="60" as="geometry" />
        </mxCell>
        <mxCell id="7bvRlJAXY8Oh5pNhT0Hx-18" style="edgeStyle=orthogonalEdgeStyle;rounded=0;orthogonalLoop=1;jettySize=auto;html=1;exitX=1;exitY=0.5;exitDx=0;exitDy=0;entryX=0;entryY=0.5;entryDx=0;entryDy=0;" edge="1" parent="1" source="7bvRlJAXY8Oh5pNhT0Hx-8" target="7bvRlJAXY8Oh5pNhT0Hx-5">
          <mxGeometry relative="1" as="geometry" />
        </mxCell>
        <mxCell id="7bvRlJAXY8Oh5pNhT0Hx-8" value="23:00 - 8:00 &lt;br&gt;高质量休息&lt;br&gt;冥想" style="rounded=1;whiteSpace=wrap;html=1;" vertex="1" parent="1">
          <mxGeometry x="470" y="250" width="140" height="60" as="geometry" />
        </mxCell>
        <mxCell id="7bvRlJAXY8Oh5pNhT0Hx-19" style="edgeStyle=orthogonalEdgeStyle;rounded=0;orthogonalLoop=1;jettySize=auto;html=1;exitX=1;exitY=0.5;exitDx=0;exitDy=0;dashed=1;entryX=0;entryY=0.5;entryDx=0;entryDy=0;" edge="1" parent="1" source="7bvRlJAXY8Oh5pNhT0Hx-10" target="7bvRlJAXY8Oh5pNhT0Hx-11">
          <mxGeometry relative="1" as="geometry">
            <mxPoint x="1260" y="390" as="targetPoint" />
          </mxGeometry>
        </mxCell>
        <mxCell id="7bvRlJAXY8Oh5pNhT0Hx-10" value="18:00 - 19:00&lt;br&gt;吃饭、散步" style="rounded=1;whiteSpace=wrap;html=1;" vertex="1" parent="1">
          <mxGeometry x="1080" y="360" width="160" height="60" as="geometry" />
        </mxCell>
        <mxCell id="7bvRlJAXY8Oh5pNhT0Hx-25" style="edgeStyle=orthogonalEdgeStyle;rounded=0;orthogonalLoop=1;jettySize=auto;html=1;exitX=1;exitY=0.5;exitDx=0;exitDy=0;entryX=0.5;entryY=1;entryDx=0;entryDy=0;" edge="1" parent="1" source="7bvRlJAXY8Oh5pNhT0Hx-11">
          <mxGeometry relative="1" as="geometry">
            <mxPoint x="1580" y="310" as="targetPoint" />
          </mxGeometry>
        </mxCell>
        <mxCell id="7bvRlJAXY8Oh5pNhT0Hx-11" value="19:00 - 21:00&lt;br style=&quot;border-color: var(--border-color);&quot;&gt;技术突破、实现" style="rounded=1;whiteSpace=wrap;html=1;" vertex="1" parent="1">
          <mxGeometry x="1290" y="360" width="150" height="60" as="geometry" />
        </mxCell>
        <mxCell id="7bvRlJAXY8Oh5pNhT0Hx-27" style="edgeStyle=orthogonalEdgeStyle;rounded=0;orthogonalLoop=1;jettySize=auto;html=1;exitX=1;exitY=0.5;exitDx=0;exitDy=0;entryX=0;entryY=0.5;entryDx=0;entryDy=0;" edge="1" parent="1" source="7bvRlJAXY8Oh5pNhT0Hx-12" target="7bvRlJAXY8Oh5pNhT0Hx-26">
          <mxGeometry relative="1" as="geometry" />
        </mxCell>
        <mxCell id="7bvRlJAXY8Oh5pNhT0Hx-12" value="19:00 - 20:00&lt;br&gt;健身" style="rounded=1;whiteSpace=wrap;html=1;" vertex="1" parent="1">
          <mxGeometry x="1080" y="250" width="160" height="60" as="geometry" />
        </mxCell>
        <mxCell id="7bvRlJAXY8Oh5pNhT0Hx-23" style="edgeStyle=orthogonalEdgeStyle;rounded=0;orthogonalLoop=1;jettySize=auto;html=1;exitX=1;exitY=0.5;exitDx=0;exitDy=0;entryX=0;entryY=0.5;entryDx=0;entryDy=0;" edge="1" parent="1" target="7bvRlJAXY8Oh5pNhT0Hx-21">
          <mxGeometry relative="1" as="geometry">
            <mxPoint x="1650" y="280" as="sourcePoint" />
            <Array as="points">
              <mxPoint x="1670" y="280" />
              <mxPoint x="1670" y="280" />
            </Array>
          </mxGeometry>
        </mxCell>
        <mxCell id="7bvRlJAXY8Oh5pNhT0Hx-21" value="22:00 - 23:00 &lt;br&gt;洗漱 、皮肤、冥想&lt;br&gt;交易计划" style="rounded=1;whiteSpace=wrap;html=1;" vertex="1" parent="1">
          <mxGeometry x="1720" y="250" width="140" height="60" as="geometry" />
        </mxCell>
        <mxCell id="7bvRlJAXY8Oh5pNhT0Hx-26" value="20:00 - 21:00&amp;nbsp; &amp;nbsp; &amp;nbsp; &amp;nbsp; &amp;nbsp; &amp;nbsp; &amp;nbsp; &amp;nbsp; &amp;nbsp; &amp;nbsp; &amp;nbsp; &amp;nbsp; &amp;nbsp; &amp;nbsp; &amp;nbsp; &amp;nbsp; &amp;nbsp; 21:00&amp;nbsp; - 22:00&lt;br&gt;复盘&lt;br&gt;交易计划" style="rounded=1;whiteSpace=wrap;html=1;" vertex="1" parent="1">
          <mxGeometry x="1290" y="250" width="360" height="60" as="geometry" />
        </mxCell>
        <mxCell id="7bvRlJAXY8Oh5pNhT0Hx-34" style="edgeStyle=orthogonalEdgeStyle;rounded=0;orthogonalLoop=1;jettySize=auto;html=1;exitX=1;exitY=0.5;exitDx=0;exitDy=0;" edge="1" parent="1" source="7bvRlJAXY8Oh5pNhT0Hx-29" target="7bvRlJAXY8Oh5pNhT0Hx-31">
          <mxGeometry relative="1" as="geometry" />
        </mxCell>
        <mxCell id="7bvRlJAXY8Oh5pNhT0Hx-29" value="周六&lt;br&gt;上午：床上好好休息&lt;br&gt;下午：爬山、徒步、沟通" style="rounded=1;whiteSpace=wrap;html=1;" vertex="1" parent="1">
          <mxGeometry x="1940" y="250" width="140" height="60" as="geometry" />
        </mxCell>
        <mxCell id="7bvRlJAXY8Oh5pNhT0Hx-30" value="" style="endArrow=none;html=1;rounded=0;" edge="1" parent="1">
          <mxGeometry width="50" height="50" relative="1" as="geometry">
            <mxPoint x="1900" y="570" as="sourcePoint" />
            <mxPoint x="1900" y="110" as="targetPoint" />
          </mxGeometry>
        </mxCell>
        <mxCell id="7bvRlJAXY8Oh5pNhT0Hx-36" style="edgeStyle=orthogonalEdgeStyle;rounded=0;orthogonalLoop=1;jettySize=auto;html=1;exitX=0.5;exitY=1;exitDx=0;exitDy=0;entryX=0.5;entryY=0;entryDx=0;entryDy=0;endArrow=baseDash;endFill=0;" edge="1" parent="1" source="7bvRlJAXY8Oh5pNhT0Hx-31" target="7bvRlJAXY8Oh5pNhT0Hx-33">
          <mxGeometry relative="1" as="geometry" />
        </mxCell>
        <mxCell id="7bvRlJAXY8Oh5pNhT0Hx-31" value="周日&lt;br&gt;上午：减 - 除、断舍离&lt;br&gt;下午：计划" style="rounded=1;whiteSpace=wrap;html=1;" vertex="1" parent="1">
          <mxGeometry x="2150" y="250" width="140" height="60" as="geometry" />
        </mxCell>
        <mxCell id="7bvRlJAXY8Oh5pNhT0Hx-33" value="运动健身&lt;br&gt;身体清洁&lt;br&gt;汗蒸、放松" style="rounded=1;whiteSpace=wrap;html=1;" vertex="1" parent="1">
          <mxGeometry x="2150" y="350" width="140" height="60" as="geometry" />
        </mxCell>
        <mxCell id="7bvRlJAXY8Oh5pNhT0Hx-35" value="周五：19:00 - 20:00&amp;nbsp; &amp;nbsp; &amp;nbsp;&lt;br&gt;健身 - 聚餐 / 沟通&amp;nbsp; / 影视" style="rounded=1;whiteSpace=wrap;html=1;" vertex="1" parent="1">
          <mxGeometry x="1080" y="450" width="780" height="40" as="geometry" />
        </mxCell>
        <mxCell id="7bvRlJAXY8Oh5pNhT0Hx-38" value="" style="endArrow=none;html=1;rounded=0;" edge="1" parent="1">
          <mxGeometry width="50" height="50" relative="1" as="geometry">
            <mxPoint x="1469.29" y="310" as="sourcePoint" />
            <mxPoint x="1469.29" y="250" as="targetPoint" />
          </mxGeometry>
        </mxCell>
        <mxCell id="7bvRlJAXY8Oh5pNhT0Hx-40" value="平衡膳食&lt;br&gt;拒绝暴饮暴食&lt;br&gt;少糖、淀粉、&lt;br&gt;多水果、蛋白质" style="ellipse;whiteSpace=wrap;html=1;dashed=1;" vertex="1" parent="1">
          <mxGeometry x="1090" y="120" width="130" height="100" as="geometry" />
        </mxCell>
        <mxCell id="7bvRlJAXY8Oh5pNhT0Hx-42" value="必须完成交易计划&lt;br&gt;必须洗漱护肤" style="ellipse;whiteSpace=wrap;html=1;dashed=1;" vertex="1" parent="1">
          <mxGeometry x="1725" y="120" width="130" height="100" as="geometry" />
        </mxCell>
        <mxCell id="7bvRlJAXY8Oh5pNhT0Hx-45" value="" style="endArrow=none;html=1;rounded=0;entryX=0.5;entryY=1;entryDx=0;entryDy=0;exitX=0.5;exitY=0;exitDx=0;exitDy=0;" edge="1" parent="1" source="7bvRlJAXY8Oh5pNhT0Hx-2" target="7bvRlJAXY8Oh5pNhT0Hx-5">
          <mxGeometry width="50" height="50" relative="1" as="geometry">
            <mxPoint x="740" y="360" as="sourcePoint" />
            <mxPoint x="790" y="310" as="targetPoint" />
          </mxGeometry>
        </mxCell>
      </root>
    </mxGraphModel>
  </diagram>
</mxfile>
